<svg xmlns="http://www.w3.org/2000/svg" width="1217.47" height="355.14" viewBox="0 0 1217.47 355.14">
  <path id="Path_2" data-name="Path 2" d="M111.52,5.52V138H85.42V84.18H26.2V138H.1V5.52H26.2V58.98H85.42V5.52Zm48.527,0h26.1V138h-26.1ZM305.48,37.56A98.088,98.088,0,0,0,290,30.72a44.35,44.35,0,0,0-14.58-2.7q-8.46,0-13.32,3.42T257.24,41.7a11.98,11.98,0,0,0,3.6,8.46,39.035,39.035,0,0,0,9.54,6.48q5.94,2.88,12.24,5.22a82.279,82.279,0,0,1,14.94,7.38A34.666,34.666,0,0,1,309.44,81.3q4.68,7.56,4.68,20.16a35.551,35.551,0,0,1-5.22,18.72,38.673,38.673,0,0,1-15.3,14.04q-10.08,5.22-24.84,5.22a83.716,83.716,0,0,1-23.22-3.42,74.3,74.3,0,0,1-22.14-10.8l11.52-20.34a62.615,62.615,0,0,0,15.66,8.28,46.551,46.551,0,0,0,15.84,3.24,35.868,35.868,0,0,0,9.36-1.26,17.452,17.452,0,0,0,7.92-4.68q3.24-3.24,3.24-9a10.976,10.976,0,0,0-2.7-7.2,25.114,25.114,0,0,0-7.02-5.94,54.242,54.242,0,0,0-9.54-4.68q-6.12-2.34-12.6-5.4a70.584,70.584,0,0,1-12.24-7.38,37.067,37.067,0,0,1-9.18-10.98q-3.42-6.66-3.42-16.2,0-11.52,5.04-19.98a36.451,36.451,0,0,1,14.58-13.32,49.58,49.58,0,0,1,21.6-5.58q16.02,0,25.92,3.78a90.033,90.033,0,0,1,18,9Zm39.6-32.04h89.28v25.2h-32.22V138h-26.1V30.72h-30.96Zm116.2,66.42a65.384,65.384,0,0,1,5.22-25.92,69.549,69.549,0,0,1,36-36.54,66.21,66.21,0,0,1,52.38,0,69.016,69.016,0,0,1,21.6,14.94,66.563,66.563,0,0,1,14.76,21.6,63.507,63.507,0,0,1,5.4,25.92,64.375,64.375,0,0,1-5.4,26.28,66.563,66.563,0,0,1-14.76,21.6,69.484,69.484,0,0,1-21.6,14.4,68.31,68.31,0,0,1-52.38,0,69.484,69.484,0,0,1-21.6-14.4,69.484,69.484,0,0,1-14.4-21.6A66.284,66.284,0,0,1,461.28,71.94Zm27,0a43.361,43.361,0,0,0,5.4,21.42,43.443,43.443,0,0,0,14.94,15.3,40.335,40.335,0,0,0,21.06,5.58,37.807,37.807,0,0,0,20.34-5.58,41,41,0,0,0,14.4-15.3,44.547,44.547,0,0,0,5.22-21.42,43.074,43.074,0,0,0-5.4-21.6,40.629,40.629,0,0,0-14.58-15.3,40.075,40.075,0,0,0-41.4,0,40.63,40.63,0,0,0-14.58,15.3A43.074,43.074,0,0,0,488.28,71.94ZM677.2,5.52q16.74,0,28.26,5.58a38.674,38.674,0,0,1,17.46,15.48q6.12,9.9,6.12,23.58a54.277,54.277,0,0,1-2.52,16.2,40.117,40.117,0,0,1-7.92,14.76,39.261,39.261,0,0,1-14.4,10.8q-9,3.96-22.32,3.96h-18.72V138h-26.1V5.52Zm4.5,65.16q7.92,0,12.24-3.24a18.7,18.7,0,0,0,6.3-7.92,23.85,23.85,0,0,0,1.8-8.46,25.764,25.764,0,0,0-.72-5.4,19.809,19.809,0,0,0-2.52-6.84,15.826,15.826,0,0,0-6.12-5.76q-3.96-2.34-10.8-2.34h-18.72V70.68Zm24.48,16.2L738.941,138h-30.42l-33.48-50.4ZM774.859,5.52h26.1V138h-26.1Zm174.053,121.5a49.548,49.548,0,0,1-8.1,4.86,70.714,70.714,0,0,1-14.22,5.4,65.76,65.76,0,0,1-18.72,2.16,76.477,76.477,0,0,1-28.08-5.58,63.472,63.472,0,0,1-20.88-14.58,64.458,64.458,0,0,1-12.96-21.06,71.047,71.047,0,0,1-4.5-25.38,81.9,81.9,0,0,1,4.5-27.72,65.263,65.263,0,0,1,13.14-21.78,60.034,60.034,0,0,1,20.52-14.22,66.627,66.627,0,0,1,26.28-5.04,71.072,71.072,0,0,1,23.58,3.6,81.544,81.544,0,0,1,16.74,7.74l-10.26,24.66a69.858,69.858,0,0,0-12.06-7.02,37.009,37.009,0,0,0-17.1-3.78,34.726,34.726,0,0,0-18.9,5.58,42.618,42.618,0,0,0-14.04,15.12,43.23,43.23,0,0,0-5.22,21.42,49.681,49.681,0,0,0,4.86,22.5,36.222,36.222,0,0,0,13.86,14.94,40.147,40.147,0,0,0,21.06,5.4q10.62,0,18.18-3.42a41.512,41.512,0,0,0,11.52-7.2ZM974.52,138,1034.28.3h1.44L1095.48,138h-30.24l-38.16-96.84,18.9-12.96L1000.26,138Zm40.86-47.88h39.78l9.18,21.96h-57.06Zm113.81-84.6h26.1V112.8h62.28V138h-88.38ZM40.24,221.52q24.66,0,37.8,12.24,13.14,12.06,13.14,32.4a56.041,56.041,0,0,1-2.52,16.38,41.526,41.526,0,0,1-7.74,14.76A37.61,37.61,0,0,1,66.7,308.1q-8.82,3.96-21.78,3.96H26.2V354H.1V221.52Zm4.5,65.16a22.04,22.04,0,0,0,9.9-1.98,17.652,17.652,0,0,0,6.12-5.22,24.708,24.708,0,0,0,4.32-12.6,25.31,25.31,0,0,0-.72-5.22,19.809,19.809,0,0,0-2.52-6.84,15.826,15.826,0,0,0-6.12-5.76q-3.96-2.34-10.8-2.34H26.2v39.96ZM100.458,354l59.76-137.7h1.44L221.418,354h-30.24l-38.16-96.84,18.9-12.96L126.2,354Zm40.86-47.88H181.1l9.18,21.96h-57.06Zm153.952-84.6q16.74,0,28.26,5.58a38.673,38.673,0,0,1,17.46,15.48q6.12,9.9,6.12,23.58a54.277,54.277,0,0,1-2.52,16.2,40.117,40.117,0,0,1-7.92,14.76,39.261,39.261,0,0,1-14.4,10.8q-9,3.96-22.32,3.96H281.23V354h-26.1V221.52Zm4.5,65.16q7.92,0,12.24-3.24a18.7,18.7,0,0,0,6.3-7.92,23.849,23.849,0,0,0,1.8-8.46,25.767,25.767,0,0,0-.72-5.4,19.809,19.809,0,0,0-2.52-6.84,15.826,15.826,0,0,0-6.12-5.76q-3.96-2.34-10.8-2.34H281.23v39.96Zm24.48,16.2L357.01,354H326.59l-33.48-50.4Zm57.042-81.36h89.28v25.2h-32.22V354h-26.1V246.72h-30.96ZM580.9,253.56a98.088,98.088,0,0,0-15.48-6.84,44.35,44.35,0,0,0-14.58-2.7q-8.46,0-13.32,3.42t-4.86,10.26a11.98,11.98,0,0,0,3.6,8.46,39.036,39.036,0,0,0,9.54,6.48q5.94,2.88,12.24,5.22a82.281,82.281,0,0,1,14.94,7.38,34.666,34.666,0,0,1,11.88,12.06q4.68,7.56,4.68,20.16a35.551,35.551,0,0,1-5.22,18.72,38.672,38.672,0,0,1-15.3,14.04q-10.08,5.22-24.84,5.22a83.716,83.716,0,0,1-23.22-3.42,74.3,74.3,0,0,1-22.14-10.8l11.52-20.34A62.615,62.615,0,0,0,526,329.16a46.551,46.551,0,0,0,15.84,3.24,35.868,35.868,0,0,0,9.36-1.26,17.452,17.452,0,0,0,7.92-4.68q3.24-3.24,3.24-9a10.976,10.976,0,0,0-2.7-7.2,25.114,25.114,0,0,0-7.02-5.94,54.24,54.24,0,0,0-9.54-4.68q-6.12-2.34-12.6-5.4a70.585,70.585,0,0,1-12.24-7.38,37.067,37.067,0,0,1-9.18-10.98q-3.42-6.66-3.42-16.2,0-11.52,5.04-19.98a36.451,36.451,0,0,1,14.58-13.32,49.58,49.58,0,0,1,21.6-5.58q16.02,0,25.92,3.78a90.034,90.034,0,0,1,18,9Z" transform="translate(-0.1 -0.3)" fill="#fb874f"/>
</svg>
